HIERARCHY
ROOT hip
{
	OFFSET 0.000000 0.000000 0.000000 
	CHANNELS 6 Xposition Yposition Zposition Xrotation Zrotation Yrotation
	JOINT abdomen
	{
		OFFSET 0.000000 3.402643 0.000000 
		CHANNELS 3 Xrotation Zrotation Yrotation
		JOINT chest
		{
			OFFSET 0.000000 8.438565 -0.680529 
			CHANNELS 3 Xrotation Zrotation Yrotation
			JOINT neck
			{
				OFFSET 0.000000 10.207942 -0.272212 
				CHANNELS 3 Xrotation Zrotation Yrotation
				JOINT head
				{
					OFFSET 0.000000 3.130431 0.000000 
					CHANNELS 3 Xrotation Zrotation Yrotation
					End Site
					{
						OFFSET 0.000000 3.130435 0.000000 
					}
				}
			}
			JOINT lCollar
			{
				OFFSET 3.470700 6.669187 -0.816635 
				CHANNELS 3 Yrotation Zrotation Xrotation
				JOINT lShldr
				{
					OFFSET 3.198488 0.000000 0.000000 
					CHANNELS 3 Zrotation Yrotation Xrotation
					JOINT lForeArm
					{
						OFFSET 10.139888 0.000000 0.000000 
						CHANNELS 3 Yrotation Zrotation Xrotation
						JOINT lHand
						{
							OFFSET 8.370511 0.000000 0.000000 
							CHANNELS 3 Zrotation Yrotation Xrotation
							End Site
							{
								OFFSET 4.083176 0.000000 0.000000 
							}
						}
					}
				}
			}
			JOINT rCollar
			{
				OFFSET -3.470700 6.669187 -0.816635 
				CHANNELS 3 Yrotation Zrotation Xrotation
				JOINT rShldr
				{
					OFFSET -3.198488 0.000000 0.000000 
					CHANNELS 3 Zrotation Yrotation Xrotation
					JOINT rForeArm
					{
						OFFSET -10.139888 0.000000 0.000000 
						CHANNELS 3 Yrotation Zrotation Xrotation
						JOINT rHand
						{
							OFFSET -8.370511 0.000000 0.000000 
							CHANNELS 3 Zrotation Yrotation Xrotation
							End Site
							{
								OFFSET -4.083176 0.000000 0.000000 
							}
						}
					}
				}
			}
		}
	}
	JOINT lThigh
	{
		OFFSET 5.308129 -1.633274 1.361059 
		CHANNELS 3 Xrotation Zrotation Yrotation
		JOINT lShin
		{
			OFFSET -2.041588 -20.007561 0.000000 
			CHANNELS 3 Xrotation Zrotation Yrotation
			JOINT lFoot
			{
				OFFSET 0.000000 -19.190928 -1.224953 
				CHANNELS 3 Xrotation Yrotation Zrotation
				End Site
				{
					OFFSET 0.000000 -2.449906 4.627600 
				}
			}
		}
	}
	JOINT rThigh
	{
		OFFSET -5.308129 -1.633274 1.361059 
		CHANNELS 3 Xrotation Zrotation Yrotation
		JOINT rShin
		{
			OFFSET 2.041588 -20.007561 0.000000 
			CHANNELS 3 Xrotation Zrotation Yrotation
			JOINT rFoot
			{
				OFFSET 0.000000 -19.190928 -1.224953 
				CHANNELS 3 Xrotation Yrotation Zrotation
				End Site
				{
					OFFSET 0.000000 -2.449906 4.627600 
				}
			}
		}
	}
}
MOTION
Frames: 18
Frame Time: 0.016667
-0.151655 43.812504 0.132266 0.439532 1.083950 13.406900 -20.227301 -1.667090 -1.748320 20.400299 2.167960 -1.119190 14.728100 11.190800 -13.627200 12.240700 8.190220 -6.914160 2.000000 -2.000000 0.000000 -82.717300 0.385968 -161.153000 81.162598 -0.235853 0.135141 0.047001 -0.027457 -146.774994 -2.000000 2.000000 0.000000 75.291901 8.685520 -147.100998 -71.065002 0.259213 0.129325 -0.054931 0.013058 -141.589996 -1.902826 -5.818569 -5.216536 23.115742 3.180921 1.661593 -33.143757 24.578779 15.421263 -12.801156 1.109869 20.533566 27.147015 -3.149990 -1.931250 -14.149323 -17.196983 -5.076807 
-0.064644 43.811604 0.166413 0.673958 1.122970 13.616900 -20.307699 -1.688500 -1.582850 20.527300 2.128910 -1.036240 14.717300 11.172600 -13.634800 12.201600 8.210430 -6.926740 2.000000 -2.000000 0.000000 -82.953003 0.958082 -162.942001 77.568901 -0.244280 0.133560 0.047086 -0.027942 -146.951004 -2.000000 2.000000 0.000000 75.908798 7.575300 -148.615997 -67.881401 0.266327 0.126661 -0.055076 0.014720 -142.184998 -1.959511 -5.962644 -5.293387 22.801994 3.165586 1.652001 -32.889790 24.598988 15.343568 -13.010925 0.903025 20.352371 27.376886 -3.128412 -1.962949 -14.323123 -17.155993 -5.130165 
0.004630 43.803505 0.189168 0.742313 1.054600 13.939600 -20.338400 -1.687240 -1.468210 20.586000 2.089840 -0.984904 14.922700 11.270900 -13.569800 12.271800 8.257200 -6.910050 2.000000 -2.000000 0.000000 -82.915199 1.188140 -164.826996 73.047401 -0.254714 0.130825 0.047295 -0.029099 -147.371002 -2.000000 2.000000 0.000000 76.672798 6.739660 -150.658997 -63.955601 0.274877 0.122839 -0.055071 0.014665 -142.166000 -2.085999 -5.909418 -5.284990 22.924326 3.143422 1.676036 -32.656200 24.476639 15.138310 -13.038651 0.879494 20.283121 27.423185 -3.151565 -1.957999 -14.459635 -17.302139 -5.233715 
0.073902 43.795269 0.211922 0.820434 0.986227 14.252600 -20.369101 -1.698540 -1.359270 20.644600 2.060540 -0.933989 15.138700 11.377600 -13.498900 12.351900 8.303720 -6.891840 2.000000 -2.000000 0.000000 -82.877197 1.408410 -166.701996 68.516197 -0.264921 0.127269 0.047513 -0.030255 -147.791000 -2.000000 2.000000 0.000000 77.465897 5.933400 -152.701996 -60.029800 0.283146 0.118441 -0.055066 0.014611 -142.145996 -2.210158 -5.874253 -5.277467 23.072969 3.139822 1.683321 -32.429379 24.330250 14.919172 -13.075373 0.863247 20.212526 27.461454 -3.161353 -1.959856 -14.580000 -17.436827 -5.327754 
0.161757 43.780613 0.231587 0.781382 1.054590 14.594600 -20.458300 -1.734570 -1.260650 20.556601 2.031250 -0.898091 15.254500 11.312400 -13.481800 12.332100 8.304170 -6.914190 2.000000 -2.000000 0.000000 -82.800102 1.374380 -168.733002 62.969299 -0.276983 0.121834 0.047923 -0.032320 -148.542999 -2.000000 2.000000 0.000000 78.464798 5.226530 -155.505997 -55.293499 0.292692 0.112396 -0.054949 0.013276 -141.667999 -2.154530 -5.936655 -5.111582 23.083605 3.133738 1.681984 -32.029831 24.154938 14.600322 -12.926555 0.655733 19.965727 27.579649 -3.162480 -1.968427 -14.654263 -17.455784 -5.374699 
0.249614 43.765816 0.251252 0.742330 1.122950 14.936600 -20.537901 -1.779740 -1.158300 20.478500 2.001950 -0.852339 15.380100 11.246500 -13.464200 12.312400 8.304620 -6.936540 2.000000 -2.000000 0.000000 -82.732597 1.340330 -170.755005 57.432098 -0.288444 0.115272 0.048355 -0.034353 -149.285004 -2.000000 2.000000 0.000000 79.482903 4.568640 -158.319000 -50.566898 0.301688 0.105599 -0.054842 0.011913 -141.179993 -2.164329 -6.010504 -4.947430 23.183229 3.128078 1.689460 -31.639582 23.992912 14.273968 -12.865896 0.508603 19.716600 27.815155 -3.172907 -1.987594 -14.724286 -17.473362 -5.396602 
0.343936 43.752571 0.271454 0.644662 1.152270 15.247500 -20.577600 -1.789720 -1.101480 20.478500 2.011720 -0.832821 15.326500 11.005000 -13.532900 12.202500 8.249100 -6.989600 2.000000 -2.000000 0.000000 97.344597 178.860992 6.520940 51.172401 -0.300568 0.106562 0.048432 -0.034700 -149.412003 -2.000000 2.000000 0.000000 80.491501 4.410270 -161.727997 -45.000401 0.311522 0.096678 -0.054775 0.010985 -140.848007 -2.060019 -6.052635 -4.865036 23.299528 3.139954 1.680614 -31.299519 23.876297 13.968706 -12.740372 0.427897 19.517532 28.028246 -3.198511 -1.981421 -14.874433 -17.659977 -5.483984 
0.438259 43.739204 0.291656 0.537226 1.191350 15.568000 -20.617399 -1.812260 -1.050340 20.468700 2.021480 -0.803882 15.283800 10.772200 -13.596200 12.092500 8.183840 -7.043810 2.000000 -2.000000 0.000000 97.441704 179.063004 3.806530 44.922298 -0.311653 0.096599 0.048503 -0.035021 -149.529007 -2.000000 2.000000 0.000000 81.499702 4.320380 -165.126007 -39.424198 0.320458 0.086826 -0.054714 0.010057 -140.516006 -1.948964 -6.094017 -4.802403 23.320597 3.135407 1.699509 -30.905926 23.768805 13.672713 -12.597756 0.326629 19.330809 28.263815 -3.208383 -2.000540 -15.047349 -17.793589 -5.576341 
0.542064 43.723389 0.299873 0.439542 1.152310 15.809800 -20.617500 -1.808830 -1.041190 20.478500 2.031250 -0.803550 15.302800 10.474900 -13.727200 12.050400 8.068670 -7.115770 2.000000 -2.000000 0.000000 97.548798 179.669006 -0.371825 38.086300 -0.322456 0.084391 0.048102 -0.033177 -148.854996 -2.000000 2.000000 0.000000 82.244102 4.593480 -169.177994 -33.584301 0.328743 0.075630 -0.054606 0.008146 -139.832001 -1.929479 -6.080907 -4.745728 23.546124 3.149669 1.719114 -30.764675 23.627996 13.491621 -12.477786 0.284528 19.255394 28.350090 -3.225259 -1.993879 -15.243782 -17.832291 -5.634087 
0.645872 43.707565 0.308089 0.332094 1.113260 16.061300 -20.617500 -1.805400 -1.032050 20.478500 2.031250 -0.803550 15.321800 10.168300 -13.862700 12.008300 7.943810 -7.187540 2.000000 -2.000000 0.000000 97.705498 -179.725006 -4.559950 31.260099 -0.331717 0.071005 0.047728 -0.031355 -148.190994 -2.000000 2.000000 0.000000 -97.041496 175.084000 6.769550 -27.744400 0.335847 0.063648 -0.054520 0.006234 -139.147995 -1.898194 -6.070983 -4.680745 23.694456 3.144800 1.716416 -30.596180 23.509045 13.307244 -12.404755 0.257865 19.175156 28.496807 -3.231576 -1.993822 -15.464573 -17.856403 -5.745063 
0.764937 43.710266 0.319342 0.234418 1.093740 16.254700 -20.686399 -1.841390 -1.016780 20.439400 2.021480 -0.804915 15.054100 9.920580 -14.018400 11.799600 7.870750 -7.275190 2.000000 -2.000000 0.000000 -82.076302 -0.715517 166.496002 24.648701 -0.339107 0.057078 0.045617 -0.017740 -143.268997 -2.000000 2.000000 0.000000 -96.659599 174.876007 1.224030 -22.529600 0.341130 0.052387 -0.054400 -0.000601 -136.707001 -1.778890 -6.107930 -4.716793 23.693935 3.152182 1.727563 -30.539013 23.432341 13.209214 -12.317315 0.216361 18.901325 28.831495 -3.236612 -2.020484 -15.613114 -17.951880 -5.803488 
0.884004 43.712963 0.330594 0.146510 1.064450 16.448200 -20.754999 -1.871640 -1.014020 20.400299 2.001950 -0.806240 14.787400 9.661970 -14.184000 11.600900 7.797320 -7.362300 2.000000 -2.000000 0.000000 -81.786499 -1.126450 157.541000 18.027500 -0.344852 0.042371 0.044682 -0.003965 -138.337997 -2.000000 2.000000 0.000000 -96.308403 174.638000 -4.332020 -17.324400 0.345362 0.040714 -0.054570 0.002330 -134.266006 -1.655359 -6.153602 -4.744652 23.710384 3.174912 1.721643 -30.473663 23.338839 13.084511 -12.249066 0.173080 18.626186 29.108467 -3.229252 -2.044693 -15.699121 -18.057323 -5.868075 
1.014629 43.683517 0.338589 0.126976 1.083980 16.653000 -20.784300 -1.935330 -1.072650 20.410101 2.031240 -0.845036 14.506800 9.539830 -14.433100 11.461800 7.741950 -7.476260 2.000000 -2.000000 0.000000 -81.011803 -1.336240 145.988998 13.115400 -0.347997 0.031084 0.045487 0.006776 -131.003998 -2.000000 2.000000 0.000000 83.718300 5.321490 167.962006 -13.984500 0.347511 0.033041 -0.056190 -0.014155 -128.348007 -1.694097 -6.259251 -4.646766 23.869793 3.156969 1.706995 -30.414328 23.118198 12.937734 -12.151544 0.036534 18.720079 29.156425 -3.236785 -2.036300 -15.699594 -18.186312 -5.917921 
1.145254 43.654072 0.346582 0.107442 1.103510 16.848000 -20.813499 -2.002440 -1.140390 20.419800 2.060540 -0.883822 14.225300 9.408130 -14.673800 11.312800 7.686690 -7.591250 2.000000 -2.000000 0.000000 -80.212997 -1.386670 134.445007 8.203220 -0.350164 0.019569 0.048903 0.027013 -123.669998 -2.000000 2.000000 0.000000 83.742500 5.290340 160.257004 -10.654400 0.349206 0.025279 -0.059495 -0.030359 -122.439003 -1.725265 -6.356406 -4.549698 24.057575 3.160931 1.734823 -30.387348 22.856812 12.769161 -12.100647 -0.091179 18.809601 29.272783 -3.251705 -2.038789 -15.733283 -18.328724 -5.972538 
1.296652 43.642109 0.347007 0.087909 1.162110 16.984400 -20.755199 -2.062350 -1.161090 20.527300 2.099610 -0.899511 13.749200 9.503900 -14.946800 11.146300 7.738290 -7.705120 2.000000 -2.000000 0.000000 -79.193298 -0.550564 132.158997 5.781320 -0.350868 0.013834 0.047624 0.021079 -125.837997 -2.000000 2.000000 0.000000 83.281403 4.191870 157.988007 -10.175900 0.349413 0.024156 -0.060571 -0.034317 -120.974998 -1.600131 -6.541617 -4.535457 24.050488 3.144981 1.751142 -30.315777 22.734533 12.636123 -12.138286 -0.260580 18.777357 29.543468 -3.290906 -2.035952 -15.807245 -18.295080 -5.999265 
1.448051 43.630020 0.347434 0.068375 1.220700 17.120800 -20.696800 -2.113150 -1.185330 20.634800 2.138670 -0.924454 13.272800 9.599070 -15.219700 10.979500 7.780170 -7.830210 2.000000 -2.000000 0.000000 -78.202904 0.315027 129.891998 3.349650 -0.351329 0.008050 0.046570 0.015101 -128.005997 -2.000000 2.000000 0.000000 82.869003 3.073760 155.738998 -9.697380 0.349610 0.023031 -0.061748 -0.038246 -119.510002 -1.545823 -6.701652 -4.510214 24.108671 3.145686 1.731164 -30.257574 22.647184 12.519704 -12.136954 -0.455070 18.758995 29.760387 -3.290525 -2.052950 -15.854448 -18.249779 -6.005599 
1.606448 43.622177 0.317718 0.068375 1.210940 17.189100 -20.686899 -2.152090 -1.233550 20.586000 2.167970 -0.955554 12.836000 9.779150 -15.427900 10.872700 7.869420 -7.912500 2.000000 -2.000000 0.000000 -77.798302 2.635800 127.584000 3.916060 -0.351244 0.009399 0.046069 0.011664 -129.246002 -2.000000 2.000000 0.000000 82.333801 1.047330 157.990997 -11.064600 0.349022 0.026240 -0.059639 -0.040680 -122.234001 -1.538670 -6.817688 -4.380203 24.111313 3.130553 1.747507 -29.975815 22.613302 12.391194 -12.288405 -0.599910 18.755970 30.076704 -3.281878 -2.076490 -15.659698 -18.205950 -5.921414 
1.764844 43.614326 0.288006 0.068374 1.201170 17.267300 -20.676800 -2.181890 -1.285220 20.537100 2.197270 -0.977311 12.408800 9.958460 -15.636300 10.765700 7.948980 -7.996250 2.000000 -2.000000 0.000000 -77.481697 4.966550 125.295998 4.472710 -0.351147 0.010724 0.045643 0.008217 -130.485992 -2.000000 2.000000 0.000000 81.720497 -0.959692 160.261002 -12.431800 0.348358 0.029434 -0.057881 -0.023491 -124.959000 -1.568526 -6.927817 -4.235028 24.151564 3.123317 1.746044 -29.722368 22.596945 12.226532 -12.428806 -0.730385 18.762892 30.439735 -3.288979 -2.084756 -15.552932 -18.157183 -5.873588 
